<?xml version="1.0" encoding="UTF-8"?>
<svg width="19px" height="25px" viewBox="0 0 19 25" version="1.1" xmlns="http://www.w3.org/2000/svg" xmlns:xlink="http://www.w3.org/1999/xlink">
  <defs>
    <polygon id="path-1" points="0.0002 0 19 0 19 24.9968 0.0002 24.9968"></polygon>
  </defs>
  <g id="Symbols" stroke="none" stroke-width="1" fill="none" fill-rule="evenodd">
    <g id="*-/-Component-/-In-cart" transform="translate(-10.000000, -5.000000)">
      <g id="Icon-/-Bag-2" transform="translate(10.000000, 5.000000)">
        <g id="Group-3">
          <mask id="mask-2" fill="white">
            <use xlink:href="#path-1"></use>
          </mask>
          <g id="Clip-2"></g>
          <path d="M17.1602,5.9968 L14.0002,5.9968 L14.0002,8.9998 L13.0002,8.9998 L13.0002,5.9968 L6.0002,5.9968 L6.0002,8.9998 L5.0002,8.9998 L5.0002,5.9968 L1.8402,5.9968 C1.3692,5.9968 0.9882,6.3708 0.9882,6.8318 L0.9882,18.9998 L18.0112,18.9998 L18.0112,6.8318 C18.0112,6.3708 17.6302,5.9968 17.1602,5.9968 L17.1602,5.9968 Z M13.0002,3.9998 C13.0002,1.9988 11.3112,0.9998 10.0002,0.9998 L9.0002,0.9998 C7.6882,0.9998 6.0002,1.9988 6.0002,3.9998 L6.0002,4.9978 L13.0002,4.9978 L13.0002,3.9998 Z M1.8402,23.9978 L17.1602,23.9978 C17.6302,23.9978 18.0112,23.6248 18.0112,23.1638 L18.0112,19.9998 L0.9882,19.9998 L0.9882,23.1638 C0.9882,23.6248 1.3692,23.9978 1.8402,23.9978 L1.8402,23.9978 Z M19.0002,19.4998 L19.0002,19.4998 L19.0002,23.4268 C19.0002,24.2948 18.2912,24.9968 17.4162,24.9968 L1.5832,24.9968 C0.7092,24.9968 0.0002,24.2948 0.0002,23.4268 L0.0002,6.5688 C0.0002,5.7008 0.7092,4.9978 1.5832,4.9978 L5.0002,4.9978 L5.0002,3.9998 C5.0002,1.8418 6.8132,-0.0002 9.0002,-0.0002 L10.0002,-0.0002 C12.1852,-0.0002 14.0002,1.8418 14.0002,3.9998 L14.0002,4.9978 L17.4162,4.9978 C18.2912,4.9978 19.0002,5.7008 19.0002,6.5688 L19.0002,19.4988 L19.0002,19.4998 Z" id="Fill-1" fill="#FFFFFF" mask="url(#mask-2)"></path>
        </g>
      </g>
    </g>
  </g>
</svg>
