<?xml version="1.0" encoding="UTF-8"?>
<svg width="30px" height="30px" viewBox="0 0 30 30" version="1.1" xmlns="http://www.w3.org/2000/svg" xmlns:xlink="http://www.w3.org/1999/xlink">
  <defs>
    <path d="M5.22,0 L12.78,0 C15.66,0 18,2.34 18,5.22 L18,12.78 C18,15.6629264 15.6629264,18 12.78,18 L5.22,18 C2.34,18 0,15.66 0,12.78 L0,5.22 C0,2.33707361 2.33707361,0 5.22,0 L5.22,0 Z M5.0400002,1.80000007 C3.25059754,1.80000007 1.80000007,3.25059754 1.80000007,5.0400002 L1.80000007,12.9600005 C1.80000007,14.7510006 3.24900013,16.2000006 5.0400002,16.2000006 L12.9600005,16.2000006 C14.7494032,16.2000006 16.2000006,14.7494032 16.2000006,12.9600005 L16.2000006,5.0400002 C16.2000006,3.24900013 14.7510006,1.80000007 12.9600005,1.80000007 L5.0400002,1.80000007 L5.0400002,1.80000007 Z M13.7249994,3.14999986 C14.3463198,3.14999986 14.8499994,3.65367951 14.8499994,4.27499986 C14.8499994,4.8963202 14.3463198,5.39999986 13.7249994,5.39999986 C13.1036791,5.39999986 12.5999994,4.8963202 12.5999994,4.27499986 C12.5999994,3.65367951 13.1036791,3.14999986 13.7249994,3.14999986 L13.7249994,3.14999986 Z M9,4.5 C11.4852814,4.5 13.5,6.51471863 13.5,9 C13.5,11.4852814 11.4852814,13.5 9,13.5 C6.51471863,13.5 4.5,11.4852814 4.5,9 C4.5,6.51471863 6.51471863,4.5 9,4.5 L9,4.5 Z M8.99999964,6.29999971 C7.50883086,6.29999971 6.29999971,7.50883086 6.29999971,8.99999964 C6.29999971,10.4911684 7.50883086,11.6999996 8.99999964,11.6999996 C10.4911684,11.6999996 11.6999996,10.4911684 11.6999996,8.99999964 C11.6999996,7.50883086 10.4911684,6.29999971 8.99999964,6.29999971 Z" id="path-1"></path>
  </defs>
  <g id="Homepage" stroke="none" stroke-width="1" fill="none" fill-rule="evenodd">
    <g id="Homepage-Desktop---TBS" transform="translate(-873.000000, -1661.000000)">
      <g id="*-/-Block-/-Follow" transform="translate(0.000000, 1651.000000)">
        <g id="follow">
          <g id="follow-content" transform="translate(361.000000, 10.000000)">
            <g id="*-/-Follow-us-on-Facebook" transform="translate(505.000000, 0.000000)">
              <g id="Group" transform="translate(7.000000, 0.000000)">
                <g id="*-/-Icon-/-Facebook-/-Black" transform="translate(0.000000, 0.000000)">
                  <circle id="Oval" fill="#000000" cx="15" cy="15" r="15"></circle>
                  <g id="instagram" transform="translate(6.000000, 6.000000)">
                    <g id="Rectangle">
                      <mask id="mask-2" fill="white">
                        <use xlink:href="#path-1"></use>
                      </mask>
                      <use id="Mask" fill="#FFFFFF" fill-rule="nonzero" xlink:href="#path-1"></use>
                    </g>
                  </g>
                </g>
              </g>
            </g>
          </g>
        </g>
      </g>
    </g>
  </g>
</svg>
