<?xml version="1.0" encoding="UTF-8"?>
<svg width="535px" height="60px" viewBox="0 0 535 60" version="1.1" xmlns="http://www.w3.org/2000/svg" xmlns:xlink="http://www.w3.org/1999/xlink">
  <defs>
    <polygon id="path-1" points="0 0.00230769231 47.074924 0.00230769231 47.074924 57.5374038 0 57.5374038"></polygon>
    <polygon id="path-3" points="0.16583558 0.0727211538 29.560841 0.0727211538 29.560841 59.7115385 0.16583558 59.7115385"></polygon>
  </defs>
  <g id="Symbols" stroke="none" stroke-width="1" fill="none" fill-rule="evenodd">
    <g id="*-/-Logo-/-Black">
      <g id="Group-29">
        <g id="Group-3" transform="translate(0.000000, 1.658077)">
          <mask id="mask-2" fill="white">
            <use xlink:href="#path-1"></use>
          </mask>
          <g id="Clip-2"></g>
          <path d="M27.3203013,35.8410577 C27.3203013,43.0439423 27.3203013,48.9291346 27.6565871,52.0035577 C27.9086571,54.1996154 28.2449429,55.605 30.5147272,55.9563462 C31.5235844,56.1320192 33.2047245,56.3076923 33.877296,56.3076923 C34.3814361,56.3076923 34.4653633,56.65875 34.4653633,56.9224038 C34.4653633,57.2740385 34.129366,57.5374038 33.2886518,57.5374038 C29.2538,57.5374038 24.5463768,57.2740385 24.1261639,57.2740385 C23.7898782,57.2740385 18.6619536,57.5374038 16.4763849,57.5374038 C15.6356706,57.5374038 15.2993849,57.3614423 15.2993849,56.9224038 C15.2993849,56.65875 15.4675278,56.3956731 15.8877407,56.3956731 C16.5603121,56.3956731 17.400738,56.2197115 18.0733094,56.0440385 C19.5865951,55.6926923 20.0070965,54.1996154 20.2591666,52.0035577 C20.5951639,48.9291346 20.5951639,43.0439423 20.5951639,35.8410577 L20.5951639,4.48240385 L9.9193903,4.65807692 C5.29589434,4.74576923 3.53053854,5.27278846 2.43775418,7.02980769 C1.5973283,8.34721154 1.51311267,8.87423077 1.26104259,9.40153846 C1.09289973,10.01625 0.84054124,10.1042308 0.504255526,10.1042308 C0.336112668,10.1042308 -0.000173045822,9.92826923 -0.000173045822,9.48923077 C-0.000173045822,8.69855769 1.42918544,2.02269231 1.5973283,1.40798077 C1.68125553,0.968653846 2.10146846,0.00230769231 2.35382695,0.00230769231 C2.85796712,0.00230769231 3.61446577,0.617596154 5.63189164,0.880961538 C7.73382156,1.14432692 10.5916733,1.23201923 11.432676,1.23201923 L39.3412178,1.23201923 C41.779145,1.23201923 43.4602852,1.05663462 44.6372852,0.880961538 C45.7300695,0.705288462 46.402641,0.529615385 46.7386383,0.529615385 C47.074924,0.529615385 47.074924,0.968653846 47.074924,1.40798077 C47.074924,3.69201923 46.8231423,9.05019231 46.8231423,9.92826923 C46.8231423,10.5432692 46.4868566,10.8946154 46.1505709,10.8946154 C45.8142852,10.8946154 45.6461423,10.6309615 45.5619267,9.57692308 L45.4779995,8.78625 C45.225641,6.50278846 43.628428,4.83346154 36.5672933,4.65807692 L27.3203013,4.48240385 L27.3203013,35.8410577 Z" id="Fill-1" fill="#FFFFFF" mask="url(#mask-2)"></path>
        </g>
        <path d="M87.471058,37.68 C87.471058,43.0370192 87.5345081,47.4141346 87.787155,49.7007692 C87.9769286,51.3340385 88.1035404,52.3794231 89.8112143,52.6404808 C90.5703086,52.7711538 91.8349852,52.9021154 92.2779825,52.9021154 C92.6572412,52.9021154 92.7838531,53.1631731 92.7838531,53.3590385 C92.7838531,53.6206731 92.4677561,53.8165385 91.8352736,53.8165385 C88.7991846,53.8165385 85.2575135,53.6206731 84.9414164,53.6206731 C84.6884811,53.6206731 81.0830714,53.8165385 79.4388477,53.8165385 C78.8063652,53.8165385 78.5534299,53.6858654 78.5534299,53.3590385 C78.5534299,53.1631731 78.6797534,52.9021154 78.9961388,52.9021154 C79.5020094,52.9021154 80.1344919,52.7711538 80.6403625,52.6404808 C81.779004,52.3794231 81.9684892,51.2685577 82.1585512,49.6352885 C82.4114865,47.3489423 82.4114865,43.1674038 82.4114865,37.8103846 L82.4114865,32.2572115 C82.4114865,31.9961538 82.2848747,31.9303846 82.0951011,31.9303846 L58.8835997,31.9303846 C58.6938261,31.9303846 58.5672143,31.9961538 58.5672143,32.2572115 L58.5672143,37.8103846 C58.5672143,43.1674038 58.5672143,47.4141346 58.8201496,49.7007692 C59.0099232,51.3340385 59.1999852,52.3794231 60.8442089,52.6404808 C61.666465,52.7711538 62.8679798,52.9021154 63.3741388,52.9021154 C63.6902358,52.9021154 63.8168477,53.1631731 63.8168477,53.3590385 C63.8168477,53.6206731 63.5639124,53.8165385 62.9314299,53.8165385 C59.8321792,53.8165385 56.2905081,53.6206731 56.0375728,53.6206731 C55.7211873,53.6206731 52.1792278,53.8165385 50.4715539,53.8165385 C49.9022332,53.8165385 49.5861361,53.6858654 49.5861361,53.3590385 C49.5861361,53.1631731 49.712748,52.9021154 50.028845,52.9021154 C50.535004,52.9021154 51.2306482,52.7711538 51.7368073,52.6404808 C52.8117102,52.3794231 52.9383221,51.3340385 53.1912574,49.7007692 C53.5076429,47.4141346 53.5076429,43.0370192 53.5076429,37.68 L53.5076429,27.8800962 C53.5076429,19.2565385 53.5076429,17.6884615 53.381031,15.9245192 C53.2544191,14.0299038 52.9383221,13.1151923 51.1043248,12.8541346 C50.6613275,12.7886538 49.712748,12.7231731 49.2068774,12.7231731 C49.0168154,12.7231731 48.7638801,12.4621154 48.7638801,12.2659615 C48.7638801,11.9394231 49.0168154,11.8084615 49.6495863,11.8084615 C52.1792278,11.8084615 55.7211873,11.9394231 56.0375728,11.9394231 C56.2905081,11.9394231 59.8321792,11.8084615 61.5398531,11.8084615 C62.1723356,11.8084615 62.4255593,11.9394231 62.4255593,12.2659615 C62.4255593,12.4621154 62.1723356,12.7231731 61.982562,12.7231731 C61.6033032,12.7231731 61.2237561,12.7231731 60.5909852,12.8541346 C59.0733733,13.1806731 58.7569879,13.9647115 58.6306644,15.9245192 C58.5672143,17.6884615 58.5672143,19.3869231 58.5672143,28.0107692 L58.5672143,29.1868269 C58.5672143,29.5133654 58.6938261,29.5133654 58.8835997,29.5133654 L82.0951011,29.5133654 C82.2848747,29.5133654 82.4114865,29.5133654 82.4114865,29.1868269 L82.4114865,28.0107692 C82.4114865,19.3869231 82.3480364,17.6884615 82.2848747,15.9245192 C82.1585512,14.0299038 81.9053275,13.1151923 80.0713302,12.8541346 C79.6286213,12.7886538 78.6797534,12.7231731 78.1738827,12.7231731 C77.920659,12.7231731 77.7311739,12.4621154 77.7311739,12.2659615 C77.7311739,11.9394231 77.9841092,11.8084615 78.6165916,11.8084615 C81.0830714,11.8084615 84.6884811,11.9394231 84.9414164,11.9394231 C85.2575135,11.9394231 88.7991846,11.8084615 90.4436968,11.8084615 C91.0761792,11.8084615 91.3925647,11.9394231 91.3925647,12.2659615 C91.3925647,12.4621154 91.139341,12.7231731 90.8864057,12.7231731 C90.5068585,12.7231731 90.1907615,12.7231731 89.4951173,12.8541346 C88.0403787,13.1806731 87.7239933,13.9647115 87.5976698,15.9245192 C87.471058,17.6884615 87.471058,19.2565385 87.471058,27.8800962 L87.471058,37.68 Z" id="Fill-4" fill="#FFFFFF"></path>
        <path d="M99.3854358,27.5527212 C99.3854358,18.8639712 99.3854358,17.2840673 99.234886,15.5068558 C99.0843361,13.5978173 98.7079615,12.6764712 96.5249884,12.4133942 C95.9977755,12.3473365 94.8686515,12.2815673 94.266452,12.2815673 C94.0403388,12.2815673 93.7392391,12.0179135 93.7392391,11.8206058 C93.7392391,11.4914712 94.0403388,11.3599327 94.7933765,11.3599327 C97.8046623,11.3599327 102.095622,11.4914712 102.471996,11.4914712 C102.923646,11.4914712 116.775099,11.5575288 118.280886,11.4914712 C119.560848,11.4257019 120.764959,11.2283942 121.292172,11.1623365 C121.592983,11.0965673 121.894083,10.8989712 122.195471,10.8989712 C122.421296,10.8989712 122.496571,11.1623365 122.496571,11.4257019 C122.496571,11.8206058 122.120196,12.4791635 121.969646,14.0587788 C121.894083,14.5852212 121.743821,17.0867596 121.592983,17.7450288 C121.517996,18.0081058 121.292172,18.3372404 120.991072,18.3372404 C120.614697,18.3372404 120.463859,18.073875 120.463859,17.6132019 C120.463859,17.2182981 120.388873,16.2966635 120.087484,15.6383942 C119.635835,14.7167596 118.95836,14.3221442 115.344875,13.9272404 C114.215751,13.7954135 106.537131,13.7296442 105.784382,13.7296442 C105.483282,13.7296442 105.407719,13.9272404 105.407719,14.3221442 L105.407719,29.5275288 C105.407719,29.9224327 105.407719,30.1197404 105.784382,30.1197404 C106.612406,30.1197404 115.344875,30.1197404 116.850662,29.9882019 C118.431436,29.856375 119.41001,29.7906058 120.087484,29.1983942 C120.539134,28.8032019 120.840522,28.4743558 121.066347,28.4743558 C121.292172,28.4743558 121.442722,28.6058942 121.442722,28.9350288 C121.442722,29.2641635 121.066347,30.1857981 120.915509,32.0287788 C120.764959,33.1477212 120.614697,35.2540673 120.614697,35.6492596 C120.614697,36.1099327 120.463859,36.7021442 120.012498,36.7021442 C119.71111,36.7021442 119.560848,36.505125 119.560848,36.1757019 C119.560848,35.6492596 119.560848,35.0567596 119.259749,34.3324327 C119.033635,33.542625 118.431436,32.8846442 115.872088,32.6212788 C114.065201,32.4236827 106.988781,32.3579135 105.859657,32.3579135 C105.483282,32.3579135 105.407719,32.5552212 105.407719,32.7528173 L105.407719,37.4264712 C105.407719,39.3352212 105.332732,45.8518558 105.407719,46.9707981 C105.558557,50.7231058 106.762956,51.4468558 113.312452,51.4468558 C115.043775,51.4468558 118.205611,51.4468558 119.937223,50.8546442 C121.668546,50.196375 122.571846,49.2089712 122.94822,46.9707981 C123.09877,46.3128173 123.24932,46.1152212 123.625695,46.1152212 C124.002069,46.1152212 124.077633,46.5758942 124.077633,46.9707981 C124.077633,47.3659904 123.55042,51.1834904 123.174045,52.3684904 C122.722684,53.8165673 122.044921,53.8165673 119.485285,53.8165673 C114.516851,53.8165673 110.677541,53.6850288 107.967355,53.6192596 C105.182182,53.4877212 103.450571,53.4877212 102.471996,53.4877212 C102.321447,53.4877212 101.041773,53.4877212 99.6115491,53.5532019 C98.3315868,53.6192596 96.8257997,53.6850288 95.7719507,53.6850288 C95.0944763,53.6850288 94.7178132,53.5532019 94.7178132,53.2243558 C94.7178132,53.0267596 94.8686515,52.7636827 95.2450261,52.7636827 C95.8472256,52.7636827 96.6755383,52.5657981 97.2777377,52.5003173 C98.5571232,52.3027212 98.7079615,51.1834904 99.0090612,49.5381058 C99.3854358,47.2341635 99.3854358,42.8241635 99.3854358,37.4264712 L99.3854358,27.5527212 Z" id="Fill-6" fill="#FFFFFF"></path>
        <path d="M156.465898,34.0325192 C156.465898,39.9058846 156.465898,48.9831923 156.54896,50.1399231 C156.797281,53.7886731 156.797281,54.6785769 159.03534,55.8355962 C161.025079,56.8143462 164.092027,56.9034808 165.418135,56.9034808 C170.225925,56.9034808 176.111213,54.9456923 176.111213,45.2455962 C176.111213,41.8636731 174.867879,35.3675192 169.148426,31.4519423 C166.66147,29.7609808 164.340637,29.8498269 162.600084,29.4941538 C161.687844,29.3161731 158.040904,29.3161731 156.880343,29.3161731 C156.631734,29.3161731 156.465898,29.4941538 156.465898,29.8498269 L156.465898,34.0325192 Z M156.465898,25.6674231 C156.465898,26.2013654 156.631734,26.3796346 156.963116,26.4684808 C157.377561,26.5573269 158.703669,26.8244423 161.439523,26.8244423 C165.500909,26.8244423 167.076203,26.6464615 168.567858,24.8666538 C170.143151,22.9977115 171.386486,20.4168462 171.386486,16.7683846 C171.386486,10.9838654 168.402311,4.57655769 161.107852,4.57655769 C160.278963,4.57655769 158.538122,4.66540385 157.377561,4.93251923 C156.714507,5.1105 156.465898,5.28848077 156.465898,5.73328846 L156.465898,25.6674231 Z M150.166165,24.0655962 C150.166165,12.3188654 150.166165,10.1830962 150.000041,7.78021154 C149.834494,5.19934615 149.420049,3.7755 147.016154,3.41953846 C146.435874,3.33069231 145.19254,3.24184615 144.529197,3.24184615 C144.280588,3.24184615 143.948917,3.06357692 143.948917,2.79675 C143.948917,2.35165385 144.280588,2.17367308 145.109766,2.17367308 C148.425324,2.17367308 153.150052,2.35165385 153.564496,2.35165385 C155.305337,2.35165385 158.703669,2.17367308 162.102289,2.17367308 C174.287887,2.17367308 177.43761,9.738 177.43761,13.7424231 C177.43761,19.7049231 173.790381,23.4425192 170.060089,27.0021346 C175.613995,28.7819423 182.908453,34.2105 182.908453,42.7535769 C182.908453,51.2080962 177.023165,59.5729038 164.589246,59.5729038 C163.26285,59.5729038 160.610346,59.4840577 158.289224,59.3057885 C155.968391,59.2172308 153.896168,59.1280962 153.564496,59.1280962 C153.398661,59.1280962 152.072553,59.2172308 150.580321,59.2172308 C149.088378,59.3057885 147.347537,59.3952115 146.186976,59.3952115 C145.44086,59.3952115 145.026416,59.2172308 145.026416,58.7721346 C145.026416,58.5050192 145.19254,58.3273269 145.606984,58.3273269 C146.270038,58.3273269 147.18199,58.0602115 147.845044,57.9710769 C149.254213,57.70425 149.420049,56.0132885 149.75172,53.7886731 C150.166165,50.6738654 150.166165,44.7116538 150.166165,37.4144423 L150.166165,24.0655962 Z" id="Fill-8" fill="#FFFFFF"></path>
        <path d="M195.811413,32.7662885 C195.811413,33.0974423 195.935429,33.2961923 196.184039,33.4949423 C196.991009,33.9590769 199.784545,34.3565769 202.205456,34.3565769 C203.509068,34.3565769 204.998993,34.2899423 206.302605,33.3625385 C208.164866,32.0373462 209.592782,29.0558077 209.592782,24.7493654 C209.592782,17.7261923 205.992276,13.6845577 200.156882,13.6845577 C198.542942,13.6845577 196.804696,13.8833077 196.245758,14.016 C195.997726,14.1484038 195.811413,14.3471538 195.811413,14.6783077 L195.811413,32.7662885 Z M191.093319,27.9957115 C191.093319,19.2501346 191.093319,17.6598462 190.969014,15.8710962 C190.844998,13.9496538 190.534669,13.0219615 188.734416,12.7571538 C188.299782,12.6905192 187.368796,12.6244615 186.871866,12.6244615 C186.685553,12.6244615 186.437521,12.3593654 186.437521,12.1606154 C186.437521,11.8291731 186.685553,11.6967692 187.306499,11.6967692 C189.789707,11.6967692 193.452222,11.8291731 193.762551,11.8291731 C194.3212,11.8291731 198.915278,11.6967692 200.591227,11.6967692 C204.068006,11.6967692 207.916834,12.0282115 210.772378,14.1484038 C212.137998,15.2085 214.559198,17.9249423 214.559198,21.8338846 C214.559198,26.0079231 212.945257,30.0498462 207.854537,34.6874423 C212.324311,40.6508077 216.11113,45.75225 219.277004,49.2636923 C222.194844,52.4442692 223.995098,52.9741731 225.361006,53.1729231 C226.416297,53.3719615 226.974947,53.3719615 227.285276,53.3719615 C227.595893,53.3719615 227.781917,53.6367692 227.781917,53.8355192 C227.781917,54.1666731 227.471588,54.2990769 226.478594,54.2990769 L223.064111,54.2990769 C219.959958,54.2990769 218.594338,53.9682115 217.228429,53.1729231 C214.869815,51.8477308 212.88296,49.1312885 209.779095,44.8909038 C207.4822,41.8433077 205.061001,38.1991731 203.881694,36.6752308 C203.633373,36.4104231 203.509068,36.3437885 203.136443,36.3437885 L196.184039,36.2113846 C195.935429,36.2113846 195.811413,36.3437885 195.811413,36.6752308 L195.811413,38.0004231 C195.811413,43.4333077 195.811413,47.8063846 196.059446,50.1253269 C196.245758,51.7813846 196.556375,52.8417692 198.232613,53.1068654 C198.977575,53.2392692 200.156882,53.3719615 200.653524,53.3719615 C201.026149,53.3719615 201.087869,53.6367692 201.087869,53.8355192 C201.087869,54.1006154 200.839836,54.2990769 200.21889,54.2990769 C197.23933,54.2990769 193.762551,54.1006154 193.514518,54.1006154 C193.452222,54.1006154 189.789707,54.2990769 188.11347,54.2990769 C187.55482,54.2990769 187.244491,54.1666731 187.244491,53.8355192 C187.244491,53.6367692 187.368796,53.3719615 187.679125,53.3719615 C188.175766,53.3719615 188.858432,53.2392692 189.355074,53.1068654 C190.410653,52.8417692 190.534669,51.7813846 190.78299,50.1253269 C191.093319,47.8063846 191.093319,43.36725 191.093319,37.9340769 L191.093319,27.9957115 Z" id="Fill-10" fill="#FFFFFF"></path>
        <path d="M227.152896,27.7493365 C227.152896,19.195875 227.152896,17.6407788 227.029456,15.8912596 C226.905729,14.1414519 226.596553,13.1044327 224.80351,12.8453942 C224.370896,12.7804904 223.44337,12.715875 222.948747,12.715875 C222.7633,12.715875 222.516133,12.4565481 222.516133,12.2624135 C222.516133,11.9381827 222.7633,11.8086635 223.38165,11.8086635 C225.854475,11.8086635 229.131386,11.9381827 229.626009,11.9381827 C230.120632,11.9381827 233.52127,11.8086635 235.128289,11.8086635 C235.74664,11.8086635 236.056103,11.9381827 236.056103,12.2624135 C236.056103,12.4565481 235.808648,12.715875 235.561192,12.715875 C235.190297,12.715875 234.881122,12.715875 234.201052,12.8453942 C232.779192,13.1044327 232.470017,14.0768365 232.346289,15.8912596 C232.22285,17.6407788 232.22285,19.195875 232.22285,27.7493365 L232.22285,35.4604904 C232.22285,43.4309712 233.891877,46.7355865 236.241262,48.9388558 C238.899823,51.4657788 241.249208,51.9195288 244.340672,51.9195288 C247.679014,51.9195288 250.893917,50.3644327 252.748968,48.0316442 C255.283801,44.8565481 255.840144,40.3204904 255.840144,34.6830865 L255.840144,27.7493365 C255.840144,19.195875 255.778136,17.6407788 255.716416,15.8912596 C255.654696,14.1414519 255.345521,13.1044327 253.552478,12.8453942 C253.119863,12.7804904 252.192338,12.715875 251.697715,12.715875 C251.450548,12.715875 251.265101,12.4565481 251.265101,12.2624135 C251.265101,11.9381827 251.512268,11.8086635 252.13033,11.8086635 C254.541723,11.8086635 257.694906,11.9381827 258.004082,11.9381827 C258.374977,11.9381827 260.971818,11.8086635 262.579125,11.8086635 C263.197475,11.8086635 263.444642,11.9381827 263.444642,12.2624135 C263.444642,12.4565481 263.259195,12.715875 263.012028,12.715875 C262.641133,12.715875 262.331958,12.715875 261.651888,12.8453942 C260.16802,13.169625 259.858844,14.0768365 259.735117,15.8912596 C259.611389,17.6407788 259.673397,19.195875 259.673397,27.7493365 L259.673397,33.6460673 C259.673397,39.6077019 258.931607,46.282125 254.603731,50.1700096 C250.64675,53.7342404 246.442602,54.1877019 243.227699,54.1877019 C241.434944,54.1877019 235.74664,54.0581827 231.913675,50.2995288 C229.255114,47.7077019 227.152896,43.8844327 227.152896,35.8493365 L227.152896,27.7493365 Z" id="Fill-12" fill="#FFFFFF"></path>
        <path d="M267.637687,52.7881731 C266.914932,52.3938462 266.854654,52.1965385 266.854654,50.6855769 C266.854654,47.9258654 267.095765,45.6914423 267.155754,44.7715385 C267.155754,44.1801923 267.276309,43.8519231 267.577409,43.8519231 C267.878509,43.8519231 268.059053,44.0489423 268.059053,44.50875 C268.059053,44.9688462 268.059053,45.7575 268.239598,46.5455769 C269.082908,50.6195192 273.05777,52.0652885 276.611266,52.0652885 C281.850805,52.0652885 284.560991,48.8454808 284.560991,44.6402885 C284.560991,40.6321154 282.57356,38.7265385 277.875943,34.9156731 L275.466857,32.9443269 C269.745385,28.2790385 267.878509,24.8622115 267.878509,20.9852885 C267.878509,14.4147115 272.636404,10.4723077 279.622264,10.4723077 C281.730539,10.4723077 283.838237,10.8005769 285.102913,11.1294231 C286.126768,11.3922115 286.548423,11.3922115 286.970078,11.3922115 C287.391444,11.3922115 287.511999,11.4576923 287.511999,11.7865385 C287.511999,12.0490385 287.271177,13.8891346 287.271177,17.7 C287.271177,18.5541346 287.2109,18.9484615 286.849811,18.9484615 C286.488145,18.9484615 286.427867,18.6856731 286.367878,18.2258654 C286.307601,17.56875 285.885946,16.0575 285.584846,15.4661538 C285.223468,14.8090385 283.476859,12.7064423 278.718964,12.7064423 C274.864657,12.7064423 271.672827,14.8090385 271.672827,18.7514423 C271.672827,22.2998077 273.298592,24.3366346 278.538132,28.2132692 L280.043919,29.3304808 C286.488145,34.1273077 288.716398,38.0039423 288.716398,42.8004808 C288.716398,46.0860577 287.572277,49.6341346 283.777959,52.3280769 C281.549706,53.9050962 278.237032,54.2991346 275.34659,54.2991346 C272.877226,54.2991346 269.805663,53.9050962 267.637687,52.7881731" id="Fill-14" fill="#FFFFFF"></path>
        <path d="M330.71534,37.6599808 C330.71534,43.0265192 330.779079,47.4108462 331.033456,49.7012308 C331.224384,51.3373846 331.351572,52.3845 333.069052,52.6461346 C333.832761,52.7768077 335.104936,52.9080577 335.550241,52.9080577 C335.931807,52.9080577 336.059284,53.1696923 336.059284,53.3658462 C336.059284,53.6277692 335.741168,53.8242115 335.105225,53.8242115 C332.051254,53.8242115 328.488529,53.6277692 328.170702,53.6277692 C327.916324,53.6277692 324.289861,53.8242115 322.635831,53.8242115 C321.999599,53.8242115 321.745222,53.69325 321.745222,53.3658462 C321.745222,53.1696923 321.872411,52.9080577 322.190238,52.9080577 C322.69957,52.9080577 323.335513,52.7768077 323.844556,52.6461346 C324.989543,52.3845 325.18047,51.2719038 325.371397,49.6360385 C325.626063,47.3453654 325.626063,43.1571923 325.626063,37.7909423 L325.626063,32.22825 C325.626063,31.9669038 325.498586,31.9011346 325.307947,31.9011346 L301.960028,31.9011346 C301.769389,31.9011346 301.641623,31.9669038 301.641623,32.22825 L301.641623,37.7909423 C301.641623,43.1571923 301.641623,47.4108462 301.896289,49.7012308 C302.087216,51.3373846 302.278144,52.3845 303.932173,52.6461346 C304.759044,52.7768077 305.967769,52.9080577 306.476812,52.9080577 C306.795216,52.9080577 306.922405,53.1696923 306.922405,53.3658462 C306.922405,53.6277692 306.667739,53.8242115 306.031508,53.8242115 C302.914087,53.8242115 299.35165,53.6277692 299.097273,53.6277692 C298.779446,53.6277692 295.216432,53.8242115 293.498664,53.8242115 C292.926171,53.8242115 292.608055,53.69325 292.608055,53.3658462 C292.608055,53.1696923 292.735532,52.9080577 293.053648,52.9080577 C293.562691,52.9080577 294.262084,52.7768077 294.771127,52.6461346 C295.852664,52.3845 295.979853,51.3373846 296.23423,49.7012308 C296.552634,47.4108462 296.552634,43.0265192 296.552634,37.6599808 L296.552634,27.8439231 C296.552634,19.2053654 296.552634,17.6349808 296.425157,15.8681538 C296.297968,13.9700769 295.979853,13.0539231 294.135184,12.7922885 C293.689591,12.7265192 292.735532,12.6613269 292.226489,12.6613269 C292.035561,12.6613269 291.781184,12.3994038 291.781184,12.20325 C291.781184,11.8758462 292.035561,11.7451731 292.671793,11.7451731 C295.216432,11.7451731 298.779446,11.8758462 299.097273,11.8758462 C299.35165,11.8758462 302.914087,11.7451731 304.632144,11.7451731 C305.268375,11.7451731 305.522464,11.8758462 305.522464,12.20325 C305.522464,12.3994038 305.268375,12.6613269 305.07716,12.6613269 C304.695594,12.6613269 304.314028,12.6613269 303.677508,12.7922885 C302.150955,13.1194038 301.832551,13.9045962 301.70565,15.8681538 C301.641623,17.6349808 301.641623,19.3363269 301.641623,27.9745962 L301.641623,29.1526731 C301.641623,29.4797885 301.769389,29.4797885 301.960028,29.4797885 L325.307947,29.4797885 C325.498586,29.4797885 325.626063,29.4797885 325.626063,29.1526731 L325.626063,27.9745962 C325.626063,19.3363269 325.562324,17.6349808 325.498586,15.8681538 C325.371397,13.9700769 325.11702,13.0539231 323.272063,12.7922885 C322.82647,12.7265192 321.872411,12.6613269 321.363367,12.6613269 C321.108702,12.6613269 320.918063,12.3994038 320.918063,12.20325 C320.918063,11.8758462 321.172729,11.7451731 321.808672,11.7451731 C324.289861,11.7451731 327.916324,11.8758462 328.170702,11.8758462 C328.488529,11.8758462 332.051254,11.7451731 333.705284,11.7451731 C334.341516,11.7451731 334.659632,11.8758462 334.659632,12.20325 C334.659632,12.3994038 334.405254,12.6613269 334.150588,12.6613269 C333.769022,12.6613269 333.450906,12.6613269 332.751225,12.7922885 C331.287834,13.1194038 330.969718,13.9045962 330.842529,15.8681538 C330.71534,17.6349808 330.71534,19.2053654 330.71534,27.8439231 L330.71534,37.6599808 Z" id="Fill-16" fill="#FFFFFF"></path>
        <g id="Group-20" transform="translate(359.935310, 0.215769)">
          <mask id="mask-4" fill="white">
            <use xlink:href="#path-3"></use>
          </mask>
          <g id="Clip-19"></g>
          <path d="M1.218531,57.655125 C0.246590296,57.118875 0.16583558,56.8503173 0.16583558,54.793875 C0.16583558,51.0386827 0.489719677,47.9980096 0.570474394,46.7466635 C0.570474394,45.9418558 0.732272237,45.4947404 1.13748787,45.4947404 C1.54241509,45.4947404 1.78525606,45.7630096 1.78525606,46.3886827 C1.78525606,47.0146442 1.78525606,48.0880096 2.02838544,49.1607981 C3.16183558,54.7044519 8.5066442,56.6717596 13.2841509,56.6717596 C20.3294232,56.6717596 23.9731914,52.2900288 23.9731914,46.5675288 C23.9731914,41.1135865 21.3013639,38.5206058 14.9846146,33.3346442 L11.7454852,30.6522404 C4.05244474,24.3037788 1.54241509,19.6543558 1.54241509,14.3789712 C1.54241509,5.43752885 7.93963073,0.0727211538 17.3331348,0.0727211538 C20.1673369,0.0727211538 23.0018275,0.519836538 24.7022911,0.966663462 C26.0788706,1.32435577 26.6455957,1.32435577 27.2126092,1.32435577 C27.7793342,1.32435577 27.9414205,1.41377885 27.9414205,1.86118269 C27.9414205,2.21858654 27.6175364,4.72243269 27.6175364,9.90810577 C27.6175364,11.0706058 27.5364933,11.6068558 27.0508113,11.6068558 C26.564841,11.6068558 26.4840863,11.2491635 26.4027547,10.6234904 C26.322,9.72925962 25.7549865,7.67310577 25.3500593,6.86800962 C24.8643774,5.97406731 22.5158571,3.11281731 16.1183531,3.11281731 C10.9356307,3.11281731 6.64409434,5.97406731 6.64409434,11.338875 C6.64409434,16.1671442 8.8305283,18.9389712 15.8755121,24.2143558 L17.9001482,25.7345481 C26.564841,32.2615673 29.560841,37.5372404 29.560841,44.0642596 C29.560841,48.535125 28.0224636,53.3633942 22.9207844,57.028875 C19.9242075,59.1753173 15.4705849,59.7115673 11.5836873,59.7115673 C8.26380323,59.7115673 4.13348787,59.1753173 1.218531,57.655125" id="Fill-18" fill="#FFFFFF" mask="url(#mask-4)"></path>
        </g>
        <path d="M410.985068,37.6259135 C410.985068,43.0521635 410.985068,47.4855288 411.233677,49.8015865 C411.420566,51.455625 411.669464,52.5145673 413.349162,52.7790865 C414.096143,52.9114904 415.340631,53.0438942 415.838138,53.0438942 C416.211628,53.0438942 416.273636,53.3084135 416.273636,53.5071635 C416.273636,53.7719712 416.025027,53.9704327 415.402639,53.9704327 C412.416157,53.9704327 408.931879,53.7719712 408.620685,53.7719712 C408.371499,53.7719712 404.576027,53.9704327 402.958337,53.9704327 C402.336237,53.9704327 402.08734,53.8380288 402.08734,53.5071635 C402.08734,53.3084135 402.211644,53.1102404 402.522839,53.1102404 C403.020634,53.1102404 403.642733,52.9778365 404.140817,52.8454327 C405.260423,52.5809135 405.571618,51.455625 405.758507,49.8015865 C406.007116,47.4855288 406.007116,43.0521635 406.007116,37.6259135 L406.007116,14.0023558 L398.105267,14.1347596 C394.682998,14.2008173 393.376213,14.5977404 392.567512,15.9214904 C391.945124,16.9137981 391.883116,17.3110096 391.696227,17.7082212 C391.571634,18.1712019 391.385033,18.2375481 391.136423,18.2375481 C391.01183,18.2375481 390.762933,18.1051442 390.762933,17.7742788 C390.762933,17.1786058 391.82082,12.1495673 391.945124,11.6862981 C392.007132,11.3554327 392.318326,10.6276442 392.505216,10.6276442 C392.878418,10.6276442 393.438221,11.0909135 394.931607,11.289375 C396.487289,11.4878365 398.602774,11.5538942 399.225162,11.5538942 L419.882795,11.5538942 C421.687087,11.5538942 422.931574,11.4217788 423.802572,11.289375 C424.611561,11.1569712 425.109356,11.0245673 425.357965,11.0245673 C425.606863,11.0245673 425.606863,11.3554327 425.606863,11.6862981 C425.606863,13.4069712 425.42055,17.4434135 425.42055,18.1051442 C425.42055,18.5684135 425.171364,18.8329327 424.922467,18.8329327 C424.673857,18.8329327 424.549264,18.6344712 424.486968,17.8403365 L424.42496,17.2446635 C424.23807,15.5242788 423.056167,14.266875 417.829318,14.1347596 L410.985068,14.0023558 L410.985068,37.6259135 Z" id="Fill-21" fill="#FFFFFF"></path>
        <path d="M446.48115,36.4540385 C446.723702,36.4540385 446.723702,36.3276923 446.662848,36.0741346 L441.385527,21.3124038 C441.08212,20.4885577 440.779001,20.4885577 440.475883,21.3124038 L435.501681,36.0741346 C435.441115,36.3276923 435.501681,36.4540385 435.683667,36.4540385 L446.48115,36.4540385 Z M440.536449,14.0264423 C441.20354,12.2526923 441.446093,11.9356731 441.810354,11.9356731 C442.356026,11.9356731 442.538012,12.6960577 443.083972,13.8998077 C444.054759,16.1806731 452.607549,38.4181731 455.883594,46.5908654 C457.824303,51.4058654 459.280195,52.1025 460.432681,52.4826923 C461.221193,52.7359615 462.009993,52.7997115 462.555664,52.7997115 C462.859071,52.7997115 463.223044,52.9263462 463.223044,53.2430769 C463.223044,53.5598077 462.616519,53.6864423 462.009993,53.6864423 C461.221193,53.6864423 457.278632,53.6864423 453.578047,53.5598077 C452.546982,53.4963462 451.697616,53.4963462 451.697616,53.1796154 C451.697616,52.9263462 451.819036,52.9263462 452.061877,52.7997115 C452.364996,52.6730769 452.910956,52.2294231 452.546982,51.3424038 L447.754767,38.9881731 C447.633635,38.7349038 447.57278,38.6714423 447.269662,38.6714423 L434.955721,38.6714423 C434.71288,38.6714423 434.530894,38.7980769 434.409761,39.1150962 L431.376845,47.7311538 C430.891163,49.0618269 430.588333,50.3919231 430.588333,51.3424038 C430.588333,52.4195192 431.498265,52.7997115 432.40791,52.7997115 L432.893303,52.7997115 C433.317842,52.7997115 433.439263,52.9895192 433.439263,53.2430769 C433.439263,53.5598077 433.136144,53.6864423 432.650751,53.6864423 C431.376845,53.6864423 428.465061,53.4963462 427.858535,53.4963462 C427.312575,53.4963462 424.643344,53.6864423 422.459794,53.6864423 C421.792414,53.6864423 421.428441,53.5598077 421.428441,53.2430769 C421.428441,52.9895192 421.671282,52.7997115 421.913834,52.7997115 C422.277807,52.7997115 423.066319,52.7359615 423.491147,52.6730769 C425.917249,52.3560577 426.948314,50.4556731 427.979956,47.7311538 L440.536449,14.0264423 Z" id="Fill-23" fill="#FFFFFF"></path>
        <path d="M467.555333,53.2005577 C466.84498,52.7978654 466.785568,52.5965192 466.785568,51.05325 C466.785568,48.2346923 467.02264,45.9529615 467.081476,45.0134423 C467.081476,44.4094038 467.200589,44.0739231 467.496498,44.0739231 C467.792406,44.0739231 467.970066,44.2755577 467.970066,44.7451731 C467.970066,45.2147885 467.970066,46.0201731 468.147727,46.8252692 C468.976905,50.9860385 472.885433,52.4623846 476.379805,52.4623846 C481.532244,52.4623846 484.197438,49.1742115 484.197438,44.8793077 C484.197438,40.7860385 482.242886,38.8397885 477.623427,34.9478654 L475.254719,32.9344038 C469.628422,28.1698846 467.792406,24.6803654 467.792406,20.7212308 C467.792406,14.01075 472.471277,9.98440385 479.341196,9.98440385 C481.413996,9.98440385 483.486508,10.3198846 484.730419,10.6553654 C485.736969,10.9236346 486.151702,10.9236346 486.566436,10.9236346 C486.98088,10.9236346 487.099128,10.9908462 487.099128,11.3266154 C487.099128,11.5948846 486.862344,13.4739231 486.862344,17.3658462 C486.862344,18.2384423 486.802932,18.6408462 486.447899,18.6408462 C486.09229,18.6408462 486.032878,18.3725769 485.974042,17.9029615 C485.91463,17.232 485.500473,15.6884423 485.203988,15.0844038 C484.848667,14.4134423 483.131476,12.2661346 478.452605,12.2661346 C474.662325,12.2661346 471.523562,14.4134423 471.523562,18.4397885 C471.523562,22.0634423 473.122794,24.1438269 478.275233,28.1029615 L479.75564,29.2438269 C486.09229,34.1424808 488.283915,38.1016154 488.283915,43.0005577 C488.283915,46.3556538 487.158541,49.9795962 483.427673,52.7306538 C481.236336,54.3414231 477.979037,54.7441154 475.135894,54.7441154 C472.707773,54.7441154 469.687546,54.3414231 467.555333,53.2005577" id="Fill-25" fill="#FFFFFF"></path>
        <path d="M529.50568,37.9431058 C529.50568,43.3283942 529.568553,47.7285865 529.8212,50.0273365 C530.010397,51.6689712 530.136432,52.7198365 531.839203,52.982625 C532.596278,53.113875 533.857782,53.2454135 534.299049,53.2454135 C534.677731,53.2454135 534.803478,53.507625 534.803478,53.7049327 C534.803478,53.9677212 534.488246,54.1644519 533.857782,54.1644519 C530.830346,54.1644519 527.297904,53.9677212 526.982672,53.9677212 C526.730313,53.9677212 523.135286,54.1644519 521.495389,54.1644519 C520.864637,54.1644519 520.612567,54.0332019 520.612567,53.7049327 C520.612567,53.507625 520.738602,53.2454135 521.053833,53.2454135 C521.55855,53.2454135 522.189302,53.113875 522.693731,52.982625 C523.828912,52.7198365 524.018397,51.6032019 524.207305,49.9615673 C524.459952,47.6628173 524.459952,43.4596442 524.459952,38.0743558 L524.459952,32.4920481 C524.459952,32.2292596 524.333629,32.1634904 524.144432,32.1634904 L500.996957,32.1634904 C500.807472,32.1634904 500.681726,32.2292596 500.681726,32.4920481 L500.681726,38.0743558 C500.681726,43.4596442 500.681726,47.7285865 500.934084,50.0273365 C501.122992,51.6689712 501.312189,52.7198365 502.952375,52.982625 C503.772036,53.113875 504.970666,53.2454135 505.475383,53.2454135 C505.790615,53.2454135 505.91665,53.507625 505.91665,53.7049327 C505.91665,53.9677212 505.664292,54.1644519 505.03354,54.1644519 C501.942941,54.1644519 498.411076,53.9677212 498.159006,53.9677212 C497.843486,53.9677212 494.31162,54.1644519 492.608273,54.1644519 C492.040971,54.1644519 491.725739,54.0332019 491.725739,53.7049327 C491.725739,53.507625 491.851486,53.2454135 492.167006,53.2454135 C492.671435,53.2454135 493.365348,53.113875 493.869488,52.982625 C494.942084,52.7198365 495.068408,51.6689712 495.320478,50.0273365 C495.635709,47.7285865 495.635709,43.3283942 495.635709,37.9431058 L495.635709,28.0918558 C495.635709,19.4227212 495.635709,17.8465673 495.509674,16.0733942 C495.383351,14.1686827 495.068408,13.2490673 493.239025,12.9865673 C492.797758,12.9207981 491.851486,12.8550288 491.346769,12.8550288 C491.157572,12.8550288 490.905502,12.5925288 490.905502,12.3955096 C490.905502,12.0669519 491.157572,11.9357019 491.788612,11.9357019 C494.31162,11.9357019 497.843486,12.0669519 498.159006,12.0669519 C498.411076,12.0669519 501.942941,11.9357019 503.646001,11.9357019 C504.276753,11.9357019 504.528823,12.0669519 504.528823,12.3955096 C504.528823,12.5925288 504.276753,12.8550288 504.087556,12.8550288 C503.709162,12.8550288 503.330769,12.8550288 502.700305,12.9865673 C501.186443,13.315125 500.870922,14.1029135 500.744599,16.0733942 C500.681726,17.8465673 500.681726,19.5539712 500.681726,28.2231058 L500.681726,29.4052212 C500.681726,29.7334904 500.807472,29.7334904 500.996957,29.7334904 L524.144432,29.7334904 C524.333629,29.7334904 524.459952,29.7334904 524.459952,29.4052212 L524.459952,28.2231058 C524.459952,19.5539712 524.396502,17.8465673 524.333629,16.0733942 C524.207305,14.1686827 523.955235,13.2490673 522.125852,12.9865673 C521.684585,12.9207981 520.738602,12.8550288 520.234173,12.8550288 C519.981815,12.8550288 519.792329,12.5925288 519.792329,12.3955096 C519.792329,12.0669519 520.044688,11.9357019 520.67544,11.9357019 C523.135286,11.9357019 526.730313,12.0669519 526.982672,12.0669519 C527.297904,12.0669519 530.830346,11.9357019 532.469666,11.9357019 C533.100418,11.9357019 533.415939,12.0669519 533.415939,12.3955096 C533.415939,12.5925288 533.163868,12.8550288 532.911798,12.8550288 C532.533116,12.8550288 532.217596,12.8550288 531.523682,12.9865673 C530.07327,13.315125 529.75775,14.1029135 529.631715,16.0733942 C529.50568,17.8465673 529.50568,19.4227212 529.50568,28.0918558 L529.50568,37.9431058 Z" id="Fill-27" fill="#FFFFFF"></path>
      </g>
    </g>
  </g>
</svg>
